ffmpeg started on 2016-12-03 at 02:27:15
Report written to "Output/x264/results/ffmpeg/old_town_cross_2160p50placebo2000k.log"
Command line:
Tools/ffmpeg/ffmpeg -benchmark -y -i Input/y4m/old_town_cross_2160p50.y4m -c:v libx264 -preset placebo -b:v 2000k -an Output/x264/encoded/old_town_cross_2160p50placebo2000k.mkv
ffmpeg version N-82227-gdb23fde Copyright (c) 2000-2016 the FFmpeg developers
  built with gcc 5.4.0 (Ubuntu 5.4.0-6ubuntu1~16.04.2) 20160609
  configuration: --prefix=/home/jaroslav/ffmpeg_build --pkg-config-flags=--static --extra-cflags=-I/home/jaroslav/ffmpeg_build/include --extra-ldflags=-L/home/jaroslav/ffmpeg_build/lib --bindir=/home/jaroslav/bin --enable-gpl --enable-libass --enable-libfdk-aac --enable-libfreetype --enable-libmp3lame --enable-libopus --enable-libtheora --enable-libvorbis --enable-libvpx --enable-libx264 --enable-libx265 --enable-nvenc --enable-libmfx --enable-libxvid --enable-libgsm --enable-libopencore-amrnb --enable-version3 --enable-nonfree
  libavutil      55. 35.100 / 55. 35.100
  libavcodec     57. 66.101 / 57. 66.101
  libavformat    57. 57.100 / 57. 57.100
  libavdevice    57.  2.100 / 57.  2.100
  libavfilter     6. 66.100 /  6. 66.100
  libswscale      4.  3.100 /  4.  3.100
  libswresample   2.  4.100 /  2.  4.100
  libpostproc    54.  2.100 / 54.  2.100
Input #0, yuv4mpegpipe, from 'Input/y4m/old_town_cross_2160p50.y4m':
  Duration: 00:00:10.00, start: 0.000000, bitrate: 4976642 kb/s
    Stream #0:0: Video: rawvideo (I420 / 0x30323449), yuv420p(progressive), 3840x2160, SAR 1:1 DAR 16:9, 50 fps, 50 tbr, 50 tbn, 50 tbc
[libx264 @ 0x34a7120] using SAR=1/1
[libx264 @ 0x34a7120] DPB size (16 frames, 518400 mbs) > level limit (5 frames, 184320 mbs)
[libx264 @ 0x34a7120] using cpu capabilities: MMX2 SSE2Fast SSSE3 SSE4.2 AVX FMA3 AVX2 LZCNT BMI2
[libx264 @ 0x34a7120] profile High, level 5.2
[libx264 @ 0x34a7120] 264 - core 148 - H.264/MPEG-4 AVC codec - Copyleft 2003-2016 - http://www.videolan.org/x264.html - options: cabac=1 ref=16 deblock=1:0:0 analyse=0x3:0x133 me=tesa subme=11 psy=1 psy_rd=1.00:0.00 mixed_ref=1 me_range=24 chroma_me=1 trellis=2 8x8dct=1 cqm=0 deadzone=21,11 fast_pskip=0 chroma_qp_offset=-2 threads=6 lookahead_threads=1 sliced_threads=0 nr=0 decimate=1 interlaced=0 bluray_compat=0 constrained_intra=0 bframes=16 b_pyramid=2 b_adapt=2 b_bias=0 direct=3 weightb=1 open_gop=0 weightp=2 keyint=250 keyint_min=25 scenecut=40 intra_refresh=0 rc_lookahead=60 rc=abr mbtree=1 bitrate=2000 ratetol=1.0 qcomp=0.60 qpmin=0 qpmax=69 qpstep=4 ip_ratio=1.40 aq=1:1.00
Output #0, matroska, to 'Output/x264/encoded/old_town_cross_2160p50placebo2000k.mkv':
  Metadata:
    encoder         : Lavf57.57.100
    Stream #0:0: Video: h264 (libx264) (H264 / 0x34363248), yuv420p, 3840x2160 [SAR 1:1 DAR 16:9], q=-1--1, 2000 kb/s, 50 fps, 1k tbn, 50 tbc
    Metadata:
      encoder         : Lavc57.66.101 libx264
    Side data:
      cpb: bitrate max/min/avg: 0/0/2000000 buffer size: 0 vbv_delay: -1
Stream mapping:
  Stream #0:0 -> #0:0 (rawvideo (native) -> h264 (libx264))
Press [q] to stop, [?] for help
frame=   59 fps=0.0 q=0.0 size=       0kB time=00:00:00.00 bitrate=N/A speed=   0x    frame=   84 fps=3.3 q=0.0 size=       0kB time=00:00:00.00 bitrate=N/A speed=   0x    frame=   89 fps=3.4 q=48.0 size=       1kB time=-00:00:00.01 bitrate=N/A speed=N/A    frame=   90 fps=3.3 q=48.0 size=       1kB time=00:00:00.00 bitrate=5888.0kbits/s speed=3.71e-05x    frame=   91 fps=3.2 q=48.0 size=       1kB time=00:00:00.02 bitrate= 280.4kbits/s speed=0.000738x    frame=   95 fps=3.2 q=48.0 size=       1kB time=00:00:00.10 bitrate=  58.3kbits/s speed=0.00344x    frame=   96 fps=3.2 q=48.0 size=       1kB time=00:00:00.12 bitrate=  48.7kbits/s speed=0.00399x    frame=   97 fps=3.1 q=48.0 size=       1kB time=00:00:00.14 bitrate=  41.8kbits/s speed=0.00446x    frame=   99 fps=2.5 q=51.0 size=       1kB time=00:00:00.18 bitrate=  32.5kbits/s speed=0.0046x    frame=  104 fps=2.5 q=52.0 size=       1kB time=00:00:00.28 bitrate=  21.0kbits/s speed=0.00684x    frame=  105 fps=2.5 q=53.0 size=       1kB time=00:00:00.30 bitrate=  19.6kbits/s speed=0.00708x    frame=  106 fps=2.5 q=53.0 size=       1kB time=00:00:00.32 bitrate=  18.3kbits/s speed=0.00744x    frame=  109 fps=2.2 q=54.0 size=       1kB time=00:00:00.38 bitrate=  15.5kbits/s speed=0.00779x    frame=  114 fps=2.2 q=54.0 size=       1kB time=00:00:00.48 bitrate=  12.2kbits/s speed=0.00923x    frame=  115 fps=2.2 q=54.0 size=       1kB time=00:00:00.50 bitrate=  11.8kbits/s speed=0.00946x    frame=  116 fps=2.2 q=54.0 size=       1kB time=00:00:00.52 bitrate=  11.3kbits/s speed=0.00972x    frame=  120 fps=2.1 q=53.0 size=       1kB time=00:00:00.60 bitrate=   9.8kbits/s speed=0.0106x    frame=  121 fps=2.1 q=53.0 size=       1kB time=00:00:00.62 bitrate=   9.5kbits/s speed=0.0108x    frame=  123 fps=2.0 q=52.0 size=       1kB time=00:00:00.66 bitrate=   8.9kbits/s speed=0.0107x    frame=  128 fps=1.9 q=52.0 size=       1kB time=00:00:00.76 bitrate=   7.7kbits/s speed=0.0115x    frame=  129 fps=1.9 q=52.0 size=       1kB time=00:00:00.78 bitrate=   7.5kbits/s speed=0.0117x    frame=  130 fps=1.9 q=52.0 size=       1kB time=00:00:00.80 bitrate=   7.4kbits/s speed=0.0119x    frame=  134 fps=1.9 q=51.0 size=       1kB time=00:00:00.88 bitrate=   6.7kbits/s speed=0.0125x    frame=  135 fps=1.9 q=52.0 size=       1kB time=00:00:00.90 bitrate=   6.5kbits/s speed=0.0124x    frame=  140 fps=1.8 q=51.0 size=       1kB time=00:00:01.00 bitrate=   5.9kbits/s speed=0.0129x    frame=  141 fps=1.8 q=51.0 size=       1kB time=00:00:01.02 bitrate=   5.8kbits/s speed=0.013x    frame=  142 fps=1.8 q=51.0 size=       1kB time=00:00:01.04 bitrate=   5.7kbits/s speed=0.0131x    frame=  145 fps=1.8 q=51.0 size=       1kB time=00:00:01.10 bitrate=   5.3kbits/s speed=0.0134x    frame=  146 fps=1.8 q=51.0 size=       1kB time=00:00:01.12 bitrate=   5.3kbits/s speed=0.0135x    frame=  147 fps=1.8 q=51.0 size=       1kB time=00:00:01.14 bitrate=   5.2kbits/s speed=0.0137x    frame=  148 fps=1.8 q=51.0 size=       1kB time=00:00:01.16 bitrate=   5.1kbits/s speed=0.0138x    frame=  150 fps=1.7 q=51.0 size=       1kB time=00:00:01.20 bitrate=   4.9kbits/s speed=0.0135x    frame=  151 fps=1.7 q=51.0 size=       1kB time=00:00:01.22 bitrate=   4.8kbits/s speed=0.0136x    frame=  152 fps=1.7 q=51.0 size=       1kB time=00:00:01.24 bitrate=   4.7kbits/s speed=0.0137x    frame=  155 fps=1.7 q=51.0 size=       1kB time=00:00:01.30 bitrate=   4.5kbits/s speed=0.0142x    frame=  156 fps=1.6 q=51.0 size=       1kB time=00:00:01.32 bitrate=   4.5kbits/s speed=0.0139x    frame=  157 fps=1.6 q=51.0 size=       1kB time=00:00:01.34 bitrate=   4.4kbits/s speed=0.014x    frame=  158 fps=1.6 q=51.0 size=       1kB time=00:00:01.36 bitrate=   4.3kbits/s speed=0.014x    frame=  160 fps=1.6 q=51.0 size=       1kB time=00:00:01.40 bitrate=   4.2kbits/s speed=0.0138x    frame=  161 fps=1.6 q=51.0 size=       1kB time=00:00:01.42 bitrate=   4.1kbits/s speed=0.0138x    frame=  162 fps=1.6 q=51.0 size=       1kB time=00:00:01.44 bitrate=   4.1kbits/s speed=0.0139x    frame=  164 fps=1.6 q=51.0 size=       1kB time=00:00:01.48 bitrate=   4.0kbits/s speed=0.0142x    frame=  166 fps=1.5 q=51.0 size=       1kB time=00:00:01.52 bitrate=   3.9kbits/s speed=0.0139x    frame=  167 fps=1.5 q=51.0 size=       1kB time=00:00:01.54 bitrate=   3.8kbits/s speed=0.014x    frame=  168 fps=1.5 q=51.0 size=       1kB time=00:00:01.56 bitrate=   3.8kbits/s speed=0.0141x    frame=  170 fps=1.5 q=51.0 size=       1kB time=00:00:01.60 bitrate=   3.7kbits/s speed=0.0138x    frame=  171 fps=1.5 q=51.0 size=       1kB time=00:00:01.62 bitrate=   3.6kbits/s speed=0.0139x    frame=  172 fps=1.5 q=51.0 size=       1kB time=00:00:01.64 bitrate=   3.6kbits/s speed=0.0139x    frame=  176 fps=1.4 q=51.0 size=       1kB time=00:00:01.72 bitrate=   3.4kbits/s speed=0.014x    frame=  177 fps=1.4 q=51.0 size=       1kB time=00:00:01.74 bitrate=   3.4kbits/s speed=0.014x    frame=  179 fps=1.4 q=51.0 size=       1kB time=00:00:01.78 bitrate=   3.3kbits/s speed=0.0142x    frame=  181 fps=1.4 q=51.0 size=       1kB time=00:00:01.82 bitrate=   3.2kbits/s speed=0.014x    frame=  182 fps=1.4 q=51.0 size=       1kB time=00:00:01.84 bitrate=   3.2kbits/s speed=0.0139x    frame=  183 fps=1.4 q=51.0 size=       1kB time=00:00:01.86 bitrate=   3.2kbits/s speed=0.014x    frame=  187 fps=1.4 q=51.0 size=       1kB time=00:00:01.94 bitrate=   3.0kbits/s speed=0.0141x    frame=  188 fps=1.3 q=51.0 size=       1kB time=00:00:01.96 bitrate=   3.0kbits/s speed=0.014x    frame=  190 fps=1.3 q=51.0 size=       1kB time=00:00:02.00 bitrate=   2.9kbits/s speed=0.0142x    frame=  192 fps=1.3 q=51.0 size=       1kB time=00:00:02.04 bitrate=   2.9kbits/s speed=0.0141x    frame=  193 fps=1.3 q=51.0 size=       1kB time=00:00:02.06 bitrate=   2.9kbits/s speed=0.0141x    frame=  194 fps=1.3 q=51.0 size=       1kB time=00:00:02.08 bitrate=   2.8kbits/s speed=0.0142x    frame=  198 fps=1.3 q=50.0 size=       1kB time=00:00:02.16 bitrate=   2.7kbits/s speed=0.0144x    frame=  199 fps=1.3 q=51.0 size=       1kB time=00:00:02.18 bitrate=   2.7kbits/s speed=0.0142x    frame=  202 fps=1.3 q=50.0 size=       1kB time=00:00:02.24 bitrate=   2.6kbits/s speed=0.0146x    frame=  203 fps=1.3 q=50.0 size=       1kB time=00:00:02.26 bitrate=   2.6kbits/s speed=0.0143x    frame=  204 fps=1.3 q=50.0 size=       1kB time=00:00:02.28 bitrate=   2.6kbits/s speed=0.0143x    frame=  205 fps=1.3 q=50.0 size=       1kB time=00:00:02.30 bitrate=   2.6kbits/s speed=0.0144x    frame=  207 fps=1.3 q=50.0 size=       1kB time=00:00:02.34 bitrate=   2.5kbits/s speed=0.0146x    frame=  209 fps=1.3 q=50.0 size=       1kB time=00:00:02.38 bitrate=   2.5kbits/s speed=0.0145x    frame=  210 fps=1.3 q=50.0 size=       1kB time=00:00:02.40 bitrate=   2.5kbits/s speed=0.0143x    frame=  211 fps=1.2 q=50.0 size=       1kB time=00:00:02.42 bitrate=   2.4kbits/s speed=0.0143x    frame=  212 fps=1.2 q=50.0 size=       1kB time=00:00:02.44 bitrate=   2.4kbits/s speed=0.0144x    frame=  216 fps=1.2 q=50.0 size=       1kB time=00:00:02.52 bitrate=   2.3kbits/s speed=0.0144x    frame=  217 fps=1.2 q=50.0 size=       1kB time=00:00:02.54 bitrate=   2.3kbits/s speed=0.0145x    frame=  218 fps=1.2 q=50.0 size=       1kB time=00:00:02.56 bitrate=   2.3kbits/s speed=0.0145x    frame=  221 fps=1.2 q=50.0 size=       1kB time=00:00:02.62 bitrate=   2.2kbits/s speed=0.0144x    frame=  222 fps=1.2 q=50.0 size=       1kB time=00:00:02.64 bitrate=   2.2kbits/s speed=0.0144x    frame=  223 fps=1.2 q=50.0 size=       1kB time=00:00:02.66 bitrate=   2.2kbits/s speed=0.0144x    frame=  227 fps=1.2 q=50.0 size=       1kB time=00:00:02.74 bitrate=   2.1kbits/s speed=0.0146x    frame=  228 fps=1.2 q=50.0 size=       1kB time=00:00:02.76 bitrate=   2.1kbits/s speed=0.0146x    frame=  229 fps=1.2 q=50.0 size=       1kB time=00:00:02.78 bitrate=   2.1kbits/s speed=0.0146x    frame=  231 fps=1.2 q=50.0 size=       1kB time=00:00:02.82 bitrate=   2.1kbits/s speed=0.0147x    frame=  232 fps=1.2 q=50.0 size=       1kB time=00:00:02.84 bitrate=   2.1kbits/s speed=0.0146x    frame=  233 fps=1.2 q=50.0 size=       1kB time=00:00:02.86 bitrate=   2.1kbits/s speed=0.0145x    frame=  234 fps=1.2 q=50.0 size=       1kB time=00:00:02.88 bitrate=   2.0kbits/s speed=0.0145x    frame=  237 fps=1.2 q=50.0 size=       1kB time=00:00:02.94 bitrate=   2.0kbits/s speed=0.0148x    frame=  238 fps=1.2 q=50.0 size=       1kB time=00:00:02.96 bitrate=   2.0kbits/s speed=0.0147x    frame=  239 fps=1.2 q=50.0 size=       1kB time=00:00:02.98 bitrate=   2.0kbits/s speed=0.0147x    frame=  240 fps=1.2 q=50.0 size=       1kB time=00:00:03.00 bitrate=   2.0kbits/s speed=0.0144x    frame=  241 fps=1.2 q=50.0 size=       1kB time=00:00:03.02 bitrate=   1.9kbits/s speed=0.0145x    frame=  242 fps=1.2 q=50.0 size=       1kB time=00:00:03.04 bitrate=   1.9kbits/s speed=0.0145x    frame=  246 fps=1.1 q=50.0 size=       1kB time=00:00:03.12 bitrate=   1.9kbits/s speed=0.0145x    frame=  249 fps=1.2 q=50.0 size=       1kB time=00:00:03.18 bitrate=   1.9kbits/s speed=0.0148x    frame=  251 fps=1.1 q=50.0 size=       1kB time=00:00:03.22 bitrate=   1.8kbits/s speed=0.0146x    frame=  252 fps=1.1 q=50.0 size=       1kB time=00:00:03.24 bitrate=   1.8kbits/s speed=0.0146x    frame=  253 fps=1.1 q=50.0 size=       1kB time=00:00:03.26 bitrate=   1.8kbits/s speed=0.0146x    frame=  257 fps=1.1 q=50.0 size=       1kB time=00:00:03.34 bitrate=   1.8kbits/s speed=0.0148x    frame=  258 fps=1.1 q=50.0 size=       1kB time=00:00:03.36 bitrate=   1.8kbits/s speed=0.0148x    frame=  259 fps=1.1 q=50.0 size=       1kB time=00:00:03.38 bitrate=   1.7kbits/s speed=0.0146x    frame=  260 fps=1.1 q=50.0 size=       1kB time=00:00:03.40 bitrate=   1.7kbits/s speed=0.0147x    frame=  261 fps=1.1 q=50.0 size=       1kB time=00:00:03.42 bitrate=   1.7kbits/s speed=0.0147x    frame=  265 fps=1.1 q=50.0 size=       1kB time=00:00:03.50 bitrate=   1.7kbits/s speed=0.0148x    frame=  266 fps=1.1 q=50.0 size=       1kB time=00:00:03.52 bitrate=   1.7kbits/s speed=0.0147x    frame=  267 fps=1.1 q=50.0 size=       1kB time=00:00:03.54 bitrate=   1.7kbits/s speed=0.0147x    frame=  270 fps=1.1 q=50.0 size=       1kB time=00:00:03.60 bitrate=   1.6kbits/s speed=0.0146x    frame=  271 fps=1.1 q=50.0 size=       1kB time=00:00:03.62 bitrate=   1.6kbits/s speed=0.0147x    frame=  272 fps=1.1 q=50.0 size=       1kB time=00:00:03.64 bitrate=   1.6kbits/s speed=0.0147x    frame=  276 fps=1.1 q=50.0 size=       1kB time=00:00:03.72 bitrate=   1.6kbits/s speed=0.0147x    frame=  277 fps=1.1 q=50.0 size=       1kB time=00:00:03.74 bitrate=   1.6kbits/s speed=0.0147x    frame=  278 fps=1.1 q=50.0 size=       1kB time=00:00:03.76 bitrate=   1.6kbits/s speed=0.0147x    frame=  280 fps=1.1 q=50.0 size=       1kB time=00:00:03.80 bitrate=   1.5kbits/s speed=0.0148x    frame=  282 fps=1.1 q=50.0 size=       1kB time=00:00:03.84 bitrate=   1.5kbits/s speed=0.0148x    frame=  283 fps=1.1 q=50.0 size=       1kB time=00:00:03.86 bitrate=   1.5kbits/s speed=0.0148x    frame=  284 fps=1.1 q=50.0 size=       1kB time=00:00:03.88 bitrate=   1.5kbits/s speed=0.0147x    frame=  285 fps=1.1 q=50.0 size=       1kB time=00:00:03.90 bitrate=   1.5kbits/s speed=0.0147x    frame=  286 fps=1.1 q=50.0 size=       1kB time=00:00:03.92 bitrate=   1.5kbits/s speed=0.0147x    frame=  290 fps=1.1 q=50.0 size=       1kB time=00:00:04.00 bitrate=   1.5kbits/s speed=0.0147x    frame=  291 fps=1.1 q=50.0 size=       1kB time=00:00:04.02 bitrate=   1.5kbits/s speed=0.0147x    frame=  292 fps=1.1 q=50.0 size=       1kB time=00:00:04.04 bitrate=   1.5kbits/s speed=0.0147x    frame=  296 fps=1.1 q=50.0 size=       1kB time=00:00:04.12 bitrate=   1.4kbits/s speed=0.0148x    frame=  297 fps=1.1 q=50.0 size=       1kB time=00:00:04.14 bitrate=   1.4kbits/s speed=0.0147x    frame=  298 fps=1.1 q=50.0 size=       1kB time=00:00:04.16 bitrate=   1.4kbits/s speed=0.0147x    frame=  299 fps=1.1 q=50.0 size=       1kB time=00:00:04.18 bitrate=   1.4kbits/s speed=0.0147x    frame=  303 fps=1.0 q=50.0 size=       1kB time=00:00:04.26 bitrate=   1.4kbits/s speed=0.0147x    frame=  304 fps=1.0 q=50.0 size=       1kB time=00:00:04.28 bitrate=   1.4kbits/s speed=0.0147x    frame=  305 fps=1.0 q=50.0 size=       1kB time=00:00:04.30 bitrate=   1.4kbits/s speed=0.0148x    frame=  307 fps=1.0 q=50.0 size=       1kB time=00:00:04.34 bitrate=   1.4kbits/s speed=0.0147x    frame=  308 fps=1.0 q=50.0 size=       1kB time=00:00:04.36 bitrate=   1.4kbits/s speed=0.0147x    frame=  309 fps=1.0 q=50.0 size=       1kB time=00:00:04.38 bitrate=   1.3kbits/s speed=0.0147x    frame=  313 fps=1.0 q=50.0 size=       1kB time=00:00:04.46 bitrate=   1.3kbits/s speed=0.0147x    frame=  315 fps=1.0 q=50.0 size=       1kB time=00:00:04.50 bitrate=   1.3kbits/s speed=0.0148x    frame=  317 fps=1.0 q=50.0 size=       1kB time=00:00:04.54 bitrate=   1.3kbits/s speed=0.0149x    frame=  319 fps=1.0 q=50.0 size=       1kB time=00:00:04.58 bitrate=   1.3kbits/s speed=0.0147x    frame=  320 fps=1.0 q=50.0 size=       1kB time=00:00:04.60 bitrate=   1.3kbits/s speed=0.0147x    frame=  321 fps=1.0 q=50.0 size=       1kB time=00:00:04.62 bitrate=   1.3kbits/s speed=0.0147x    frame=  325 fps=1.0 q=50.0 size=       1kB time=00:00:04.70 bitrate=   1.3kbits/s speed=0.0148x    frame=  326 fps=1.0 q=50.0 size=       1kB time=00:00:04.72 bitrate=   1.2kbits/s speed=0.0148x    frame=  327 fps=1.0 q=50.0 size=       1kB time=00:00:04.74 bitrate=   1.2kbits/s speed=0.0147x    frame=  329 fps=1.0 q=50.0 size=       1kB time=00:00:04.78 bitrate=   1.2kbits/s speed=0.0148x    frame=  330 fps=1.0 q=50.0 size=       1kB time=00:00:04.80 bitrate=   1.2kbits/s speed=0.0148x    frame=  331 fps=1.0 q=50.0 size=       1kB time=00:00:04.82 bitrate=   1.2kbits/s speed=0.0148x    frame=  333 fps=1.0 q=50.0 size=       1kB time=00:00:04.86 bitrate=   1.2kbits/s speed=0.0148x    frame=  334 fps=1.0 q=50.0 size=       1kB time=00:00:04.88 bitrate=   1.2kbits/s speed=0.0148x    frame=  335 fps=1.0 q=50.0 size=       1kB time=00:00:04.90 bitrate=   1.2kbits/s speed=0.0148x    frame=  336 fps=1.0 q=50.0 size=       1kB time=00:00:04.92 bitrate=   1.2kbits/s speed=0.0149x    frame=  341 fps=1.0 q=50.0 size=    1166kB time=00:00:05.02 bitrate=1902.4kbits/s speed=0.0151x    frame=  342 fps=1.0 q=50.0 size=    1166kB time=00:00:05.04 bitrate=1894.9kbits/s speed=0.0151x    frame=  343 fps=1.0 q=50.0 size=    1166kB time=00:00:05.06 bitrate=1887.4kbits/s speed=0.0152x    frame=  347 fps=1.0 q=50.0 size=    1166kB time=00:00:05.14 bitrate=1858.0kbits/s speed=0.0154x    frame=  348 fps=1.0 q=50.0 size=    1166kB time=00:00:05.16 bitrate=1850.8kbits/s speed=0.0154x    frame=  350 fps=1.0 q=50.0 size=    1166kB time=00:00:05.20 bitrate=1836.6kbits/s speed=0.0154x    frame=  354 fps=1.0 q=50.0 size=    1166kB time=00:00:05.28 bitrate=1808.8kbits/s speed=0.0155x    frame=  359 fps=1.0 q=50.0 size=    1166kB time=00:00:05.38 bitrate=1775.2kbits/s speed=0.0156x    frame=  360 fps=1.0 q=50.0 size=    1166kB time=00:00:05.40 bitrate=1768.6kbits/s speed=0.0156x    frame=  361 fps=1.0 q=50.0 size=    1166kB time=00:00:05.42 bitrate=1762.1kbits/s speed=0.0157x    frame=  365 fps=1.0 q=50.0 size=    1166kB time=00:00:05.50 bitrate=1736.4kbits/s speed=0.0157x    frame=  366 fps=1.0 q=50.0 size=    1166kB time=00:00:05.52 bitrate=1730.1kbits/s speed=0.0158x    frame=  367 fps=1.0 q=50.0 size=    1166kB time=00:00:05.54 bitrate=1723.9kbits/s speed=0.0158x    frame=  369 fps=1.0 q=50.0 size=    1166kB time=00:00:05.58 bitrate=1711.5kbits/s speed=0.0157x    frame=  374 fps=1.0 q=50.0 size=    1166kB time=00:00:05.68 bitrate=1681.4kbits/s speed=0.0158x    frame=  375 fps=1.0 q=50.0 size=    1166kB time=00:00:05.70 bitrate=1675.5kbits/s speed=0.0158x    frame=  376 fps=1.0 q=50.0 size=    1166kB time=00:00:05.72 bitrate=1669.7kbits/s speed=0.0158x    frame=  380 fps=1.0 q=50.0 size=    1166kB time=00:00:05.80 bitrate=1646.6kbits/s speed=0.0158x    frame=  381 fps=1.0 q=50.0 size=    1166kB time=00:00:05.82 bitrate=1641.0kbits/s speed=0.0159x    frame=  384 fps=1.0 q=50.0 size=    1166kB time=00:00:05.88 bitrate=1624.2kbits/s speed=0.0159x    frame=  389 fps=1.0 q=50.0 size=    1166kB time=00:00:05.98 bitrate=1597.1kbits/s speed=0.0159x    frame=  390 fps=1.0 q=50.0 size=    1166kB time=00:00:06.00 bitrate=1591.8kbits/s speed=0.0159x    frame=  391 fps=1.0 q=50.0 size=    1166kB time=00:00:06.02 bitrate=1586.5kbits/s speed=0.016x    frame=  395 fps=1.0 q=50.0 size=    1166kB time=00:00:06.10 bitrate=1565.7kbits/s speed=0.0159x    frame=  396 fps=1.0 q=50.0 size=    1166kB time=00:00:06.12 bitrate=1560.5kbits/s speed=0.016x    frame=  401 fps=1.0 q=50.0 size=    1166kB time=00:00:06.22 bitrate=1535.5kbits/s speed=0.0161x    frame=  402 fps=1.0 q=50.0 size=    1166kB time=00:00:06.24 bitrate=1530.5kbits/s speed=0.0161x    frame=  403 fps=1.0 q=50.0 size=    1166kB time=00:00:06.26 bitrate=1525.7kbits/s speed=0.016x    frame=  404 fps=1.0 q=50.0 size=    1166kB time=00:00:06.28 bitrate=1520.8kbits/s speed=0.016x    frame=  405 fps=1.0 q=50.0 size=    1166kB time=00:00:06.30 bitrate=1516.0kbits/s speed=0.016x    frame=  409 fps=1.0 q=50.0 size=    1166kB time=00:00:06.38 bitrate=1497.0kbits/s speed=0.016x    frame=  411 fps=1.0 q=50.0 size=    1166kB time=00:00:06.42 bitrate=1487.6kbits/s speed=0.016x    frame=  415 fps=1.0 q=50.0 size=    1166kB time=00:00:06.50 bitrate=1469.3kbits/s speed=0.016x    frame=  416 fps=1.0 q=50.0 size=    1166kB time=00:00:06.52 bitrate=1464.8kbits/s speed=0.0159x    frame=  417 fps=1.0 q=50.0 size=    1166kB time=00:00:06.54 bitrate=1460.3kbits/s speed=0.0159x    frame=  418 fps=1.0 q=50.0 size=    1166kB time=00:00:06.56 bitrate=1455.9kbits/s speed=0.0159x    frame=  421 fps=1.0 q=50.0 size=    1166kB time=00:00:06.62 bitrate=1442.7kbits/s speed=0.016x    frame=  422 fps=1.0 q=50.0 size=    1166kB time=00:00:06.64 bitrate=1438.4kbits/s speed=0.0159x    frame=  423 fps=1.0 q=50.0 size=    1166kB time=00:00:06.66 bitrate=1434.0kbits/s speed=0.0159x    frame=  425 fps=1.0 q=50.0 size=    1166kB time=00:00:06.70 bitrate=1425.5kbits/s speed=0.0159x    frame=  427 fps=1.0 q=50.0 size=    1166kB time=00:00:06.74 bitrate=1417.0kbits/s speed=0.0159x    frame=  428 fps=1.0 q=50.0 size=    1166kB time=00:00:06.76 bitrate=1412.8kbits/s speed=0.0159x    frame=  429 fps=1.0 q=50.0 size=    1166kB time=00:00:06.78 bitrate=1408.7kbits/s speed=0.0159x    frame=  431 fps=1.0 q=50.0 size=    1166kB time=00:00:06.82 bitrate=1400.4kbits/s speed=0.0159x    frame=  433 fps=1.0 q=50.0 size=    1166kB time=00:00:06.86 bitrate=1392.2kbits/s speed=0.0159x    frame=  434 fps=1.0 q=50.0 size=    1166kB time=00:00:06.88 bitrate=1388.2kbits/s speed=0.0159x    frame=  435 fps=1.0 q=50.0 size=    1166kB time=00:00:06.90 bitrate=1384.2kbits/s speed=0.0159x    frame=  437 fps=1.0 q=50.0 size=    1166kB time=00:00:06.94 bitrate=1376.2kbits/s speed=0.0159x    frame=  438 fps=1.0 q=50.0 size=    1166kB time=00:00:06.96 bitrate=1372.2kbits/s speed=0.0158x    frame=  439 fps=1.0 q=50.0 size=    1166kB time=00:00:06.98 bitrate=1368.3kbits/s speed=0.0158x    frame=  440 fps=1.0 q=50.0 size=    1166kB time=00:00:07.00 bitrate=1364.4kbits/s speed=0.0158x    frame=  444 fps=1.0 q=51.0 size=    1166kB time=00:00:07.08 bitrate=1349.0kbits/s speed=0.0158x    frame=  446 fps=1.0 q=51.0 size=    1166kB time=00:00:07.12 bitrate=1341.4kbits/s speed=0.0159x    frame=  447 fps=1.0 q=51.0 size=    1166kB time=00:00:07.14 bitrate=1337.6kbits/s speed=0.0158x    frame=  448 fps=1.0 q=51.0 size=    1166kB time=00:00:07.16 bitrate=1333.9kbits/s speed=0.0158x    frame=  449 fps=1.0 q=51.0 size=    1166kB time=00:00:07.18 bitrate=1330.2kbits/s speed=0.0158x    frame=  450 fps=1.0 q=51.0 size=    1166kB time=00:00:07.20 bitrate=1326.5kbits/s speed=0.0158x    frame=  452 fps=1.0 q=51.0 size=    1166kB time=00:00:07.24 bitrate=1319.2kbits/s speed=0.0158x    frame=  453 fps=1.0 q=51.0 size=    1166kB time=00:00:07.26 bitrate=1315.5kbits/s speed=0.0158x    frame=  454 fps=1.0 q=51.0 size=    1166kB time=00:00:07.28 bitrate=1311.9kbits/s speed=0.0158x    frame=  456 fps=1.0 q=51.0 size=    1166kB time=00:00:07.32 bitrate=1304.8kbits/s speed=0.0158x    frame=  458 fps=1.0 q=51.0 size=    1166kB time=00:00:07.36 bitrate=1297.7kbits/s speed=0.0157x    frame=  459 fps=1.0 q=51.0 size=    1166kB time=00:00:07.38 bitrate=1294.1kbits/s speed=0.0157x    frame=  460 fps=1.0 q=51.0 size=    1166kB time=00:00:07.40 bitrate=1290.7kbits/s speed=0.0158x    frame=  464 fps=1.0 q=51.0 size=    1166kB time=00:00:07.48 bitrate=1276.8kbits/s speed=0.0158x    frame=  465 fps=1.0 q=51.0 size=    1166kB time=00:00:07.50 bitrate=1273.4kbits/s speed=0.0158x    frame=  467 fps=1.0 q=51.0 size=    1166kB time=00:00:07.54 bitrate=1266.7kbits/s speed=0.0158x    frame=  468 fps=1.0 q=51.0 size=    1166kB time=00:00:07.56 bitrate=1263.3kbits/s speed=0.0157x    frame=  469 fps=1.0 q=51.0 size=    1166kB time=00:00:07.58 bitrate=1260.0kbits/s speed=0.0158x    frame=  470 fps=1.0 q=51.0 size=    1166kB time=00:00:07.60 bitrate=1256.7kbits/s speed=0.0158x    frame=  474 fps=1.0 q=51.0 size=    1166kB time=00:00:07.68 bitrate=1243.6kbits/s speed=0.0157x    frame=  475 fps=1.0 q=51.0 size=    1166kB time=00:00:07.70 bitrate=1240.4kbits/s speed=0.0158x    frame=  476 fps=1.0 q=51.0 size=    1166kB time=00:00:07.72 bitrate=1237.2kbits/s speed=0.0157x    frame=  478 fps=1.0 q=51.0 size=    1166kB time=00:00:07.76 bitrate=1230.8kbits/s speed=0.0158x    frame=  480 fps=1.0 q=51.0 size=    1166kB time=00:00:07.80 bitrate=1224.5kbits/s speed=0.0157x    frame=  481 fps=1.0 q=51.0 size=    1166kB time=00:00:07.82 bitrate=1221.3kbits/s speed=0.0157x    frame=  482 fps=1.0 q=51.0 size=    1166kB time=00:00:07.84 bitrate=1218.2kbits/s speed=0.0157x    frame=  486 fps=1.0 q=51.0 size=    1166kB time=00:00:07.92 bitrate=1205.9kbits/s speed=0.0157x    frame=  487 fps=1.0 q=51.0 size=    1166kB time=00:00:07.94 bitrate=1202.9kbits/s speed=0.0156x    frame=  491 fps=1.0 q=51.0 size=    1166kB time=00:00:08.02 bitrate=1190.9kbits/s speed=0.0158x    frame=  492 fps=1.0 q=51.0 size=    1166kB time=00:00:08.04 bitrate=1187.9kbits/s speed=0.0157x    frame=  493 fps=1.0 q=51.0 size=    1166kB time=00:00:08.06 bitrate=1185.0kbits/s speed=0.0157x    frame=  495 fps=1.0 q=51.0 size=    1166kB time=00:00:08.10 bitrate=1179.1kbits/s speed=0.0156x    frame=  496 fps=1.0 q=51.0 size=    1166kB time=00:00:08.12 bitrate=1176.2kbits/s speed=0.0156x    frame=  497 fps=1.0 q=51.0 size=    1166kB time=00:00:08.14 bitrate=1173.3kbits/s speed=0.0156x    frame=  499 fps=1.0 q=51.0 size=    1166kB time=00:00:08.18 bitrate=1167.6kbits/s speed=0.0157x    frame=  500 fps=1.0 q=51.0 size=    1166kB time=00:00:08.20 bitrate=1164.7kbits/s speed=0.0156x    frame=  500 fps=0.8 q=-1.0 Lsize=    2545kB time=00:00:09.94 bitrate=2097.2kbits/s speed=0.0157x    
video:2541kB audio:0kB subtitle:0kB other streams:0kB global headers:0kB muxing overhead: 0.167813%
bench: utime=2384.756s
bench: maxrss=6455044kB
[libx264 @ 0x34a7120] frame I:3     Avg QP:45.68  size: 55041
[libx264 @ 0x34a7120] frame P:45    Avg QP:48.50  size: 11125
[libx264 @ 0x34a7120] frame B:452   Avg QP:48.96  size:  4281
[libx264 @ 0x34a7120] consecutive B-frames:  0.6%  0.0%  0.0%  0.0%  0.0%  0.0%  1.4%  3.2%  7.2% 30.0% 19.8%  9.6%  5.2% 14.0%  9.0%  0.0%  0.0%
[libx264 @ 0x34a7120] mb I  I16..4: 30.0% 60.5%  9.5%
[libx264 @ 0x34a7120] mb P  I16..4:  0.2%  0.4%  0.0%  P16..4: 11.0% 10.8%  1.1%  0.0%  0.0%    skip:76.4%
[libx264 @ 0x34a7120] mb B  I16..4:  0.0%  0.0%  0.0%  B16..8: 20.4%  0.4%  0.0%  direct: 0.0%  skip:79.2%  L0:45.9% L1:54.1% BI: 0.0%
[libx264 @ 0x34a7120] final ratefactor: 42.91
[libx264 @ 0x34a7120] 8x8 transform intra:61.2% inter:96.5%
[libx264 @ 0x34a7120] direct mvs  spatial:98.7% temporal:1.3%
[libx264 @ 0x34a7120] coded y,uvDC,uvAC intra: 13.2% 15.3% 0.8% inter: 0.0% 0.2% 0.0%
[libx264 @ 0x34a7120] i16 v,h,dc,p: 13% 41%  1% 45%
[libx264 @ 0x34a7120] i8 v,h,dc,ddl,ddr,vr,hd,vl,hu:  8%  0% 52%  6% 10%  5%  9%  4%  7%
[libx264 @ 0x34a7120] i4 v,h,dc,ddl,ddr,vr,hd,vl,hu: 31%  1% 43%  6%  6%  3%  4%  2%  4%
[libx264 @ 0x34a7120] i8c dc,h,v,p: 22% 66%  6%  6%
[libx264 @ 0x34a7120] Weighted P-Frames: Y:4.4% UV:2.2%
[libx264 @ 0x34a7120] ref P L0: 72.8%  1.6% 14.1%  3.2%  2.1%  1.9%  1.5%  0.5%  0.4%  0.4%  0.3%  0.3%  0.3%  0.3%  0.3%  0.1%
[libx264 @ 0x34a7120] ref B L0: 96.1%  2.2%  1.0%  0.2%  0.2%  0.1%  0.1%  0.0%  0.0%  0.0%  0.0%  0.0%  0.0%  0.0%  0.0%
[libx264 @ 0x34a7120] ref B L1: 97.3%  2.7%
[libx264 @ 0x34a7120] kb/s:2080.80
